<?xml version="1.0" encoding="iso-8859-1"?>
<!-- Generator: Adobe Illustrator 19.0.0, SVG Export Plug-In . SVG Version: 6.00 Build 0)  -->
<svg version="1.1" id="Layer_1" xmlns="http://www.w3.org/2000/svg" xmlns:xlink="http://www.w3.org/1999/xlink" x="0px" y="0px"
	 viewBox="0 0 512 512" style="enable-background:new 0 0 512 512;" xml:space="preserve">
<path style="fill:#F4C064;" d="M456.348,278.261L456.348,278.261c12.295,0,22.261,9.966,22.261,22.261
	c0,7.565-3.782,14.238-9.55,18.261c6.084,11.1,9.55,23.839,9.55,37.392c0,9.697-3.11,18.661-8.372,25.973
	c5.238,6.634,8.372,15.005,8.372,24.114c0,21.515-17.441,38.957-38.957,38.957h16.696c12.295,0,22.261,9.966,22.261,22.261
	c0,24.588-19.934,44.522-44.522,44.522H77.913c-24.588,0-44.522-19.933-44.522-44.522c0-12.295,9.966-22.261,22.261-22.261h16.696
	c-21.515,0-38.957-17.441-38.957-38.957c0-9.109,3.134-17.48,8.372-24.114c-5.262-7.312-8.372-16.276-8.372-25.973
	c0-13.551,3.465-26.291,9.55-37.392c-5.768-4.023-9.55-10.695-9.55-18.261c0-12.295,9.966-22.261,22.261-22.261l0,0
	c-12.295,0-22.261-9.966-22.261-22.261h445.217C478.609,268.295,468.642,278.261,456.348,278.261z"/>
<path style="fill:#99774F;" d="M478.609,406.261L478.609,406.261c0,21.515-17.441,38.957-38.957,38.957H72.348
	c-21.515,0-38.957-17.441-38.957-38.957l0,0c0-21.515,17.441-38.957,38.957-38.957h367.304
	C461.167,367.304,478.609,384.746,478.609,406.261z"/>
<path style="fill:#91F18B;" d="M478.609,356.174L478.609,356.174c0,24.588-19.934,44.522-44.522,44.522l0,0
	c-14.594,0-27.54-7.028-35.657-17.878c-2.083-2.784-5.387-4.383-8.864-4.383l0,0c-3.477,0-6.782,1.599-8.864,4.383
	c-8.117,10.85-21.063,17.878-35.657,17.878l0,0c-14.594,0-27.54-7.028-35.657-17.878c-2.082-2.784-5.387-4.383-8.864-4.383l0,0
	c-3.477,0-6.782,1.599-8.864,4.383c-8.117,10.85-21.063,17.878-35.657,17.878l0,0c-14.594,0-27.54-7.028-35.657-17.878
	c-2.083-2.784-5.387-4.383-8.864-4.383l0,0c-3.477,0-6.782,1.599-8.864,4.383c-8.117,10.85-21.063,17.878-35.657,17.878l0,0
	c-14.594,0-27.54-7.028-35.657-17.878c-2.083-2.784-5.387-4.383-8.864-4.383l0,0c-3.477,0-6.782,1.599-8.864,4.383
	c-8.117,10.85-21.063,17.878-35.657,17.878l0,0c-24.588,0-44.522-19.934-44.522-44.522l0,0c0-43.03,34.883-77.913,77.913-77.913
	h11.13h89.043h89.043h89.043h11.13C443.726,278.261,478.609,313.144,478.609,356.174z"/>
<path style="fill:#FF8355;" d="M478.609,300.522L478.609,300.522c0,12.295-9.966,22.261-22.261,22.261H55.652
	c-12.295,0-22.261-9.966-22.261-22.261l0,0c0-12.295,9.966-22.261,22.261-22.261h400.696
	C468.642,278.261,478.609,288.227,478.609,300.522z"/>
<path style="fill:#FFE954;" d="M256,356.174L256,356.174c-14.384,0-28.312-5.043-39.362-14.251L100.174,244.87h311.652
	l-116.464,97.053C284.312,351.131,270.384,356.174,256,356.174z"/>
<path style="fill:#F4C064;" d="M456.348,278.261H55.652c-12.295,0-22.261-9.966-22.261-22.261l0,0
	c0-86.061,69.766-155.826,155.826-155.826h133.565c86.061,0,155.826,69.766,155.826,155.826l0,0
	C478.609,268.295,468.642,278.261,456.348,278.261z"/>
<path style="fill:#F4AB53;" d="M222.609,512H77.913c-24.588,0-44.522-19.933-44.522-44.522l0,0c0-12.295,9.966-22.261,22.261-22.261
	h144.696c-12.295,0-22.261,9.966-22.261,22.261l0,0C178.087,492.066,198.02,512,222.609,512z M189.217,100.174
	c-86.061,0-155.826,69.766-155.826,155.826l0,0c0,12.295,9.966,22.261,22.261,22.261h144.696c-12.295,0-22.261-9.966-22.261-22.261
	l0,0c0-86.061,69.766-155.826,155.826-155.826H189.217z"/>
<path style="fill:#FFEE92;" d="M431.304,233.739c0,4.61-3.738,8.348-8.348,8.348h-11.13c-4.61,0-8.348-3.738-8.348-8.348
	s3.738-8.348,8.348-8.348h11.13C427.567,225.391,431.304,229.129,431.304,233.739z M378.435,147.478h-11.13
	c-4.61,0-8.348,3.738-8.348,8.348s3.738,8.348,8.348,8.348h11.13c4.61,0,8.348-3.738,8.348-8.348S383.045,147.478,378.435,147.478z
	 M420.174,189.217c0-4.61-3.738-8.348-8.348-8.348h-11.13c-4.61,0-8.348,3.738-8.348,8.348c0,4.61,3.738,8.348,8.348,8.348h11.13
	C416.436,197.565,420.174,193.828,420.174,189.217z M356.174,203.13h-11.13c-4.61,0-8.348,3.738-8.348,8.348
	c0,4.61,3.738,8.348,8.348,8.348h11.13c4.61,0,8.348-3.738,8.348-8.348C364.522,206.868,360.784,203.13,356.174,203.13z"/>
<path style="fill:#FF8355;" d="M356.174,66.783H256V11.13h100.174c6.147,0,11.13,4.983,11.13,11.13v33.391
	C367.304,61.8,362.321,66.783,356.174,66.783z"/>
<path style="fill:#CEA05D;" d="M264.348,8.348v125.217h-16.696V8.348C247.652,3.738,251.39,0,256,0S264.348,3.738,264.348,8.348z"/>
<path style="fill:#F49744;" d="M286.609,133.565c0,4.61-3.738,8.348-8.348,8.348h-55.652c-4.61,0-8.348-3.738-8.348-8.348
	c0-4.61,3.738-8.348,8.348-8.348h55.652C282.871,125.217,286.609,128.955,286.609,133.565z"/>
<g>
</g>
<g>
</g>
<g>
</g>
<g>
</g>
<g>
</g>
<g>
</g>
<g>
</g>
<g>
</g>
<g>
</g>
<g>
</g>
<g>
</g>
<g>
</g>
<g>
</g>
<g>
</g>
<g>
</g>
</svg>
