<?xml version="1.0" standalone="no"?>
<!DOCTYPE svg PUBLIC "-//W3C//DTD SVG 20010904//EN"
 "http://www.w3.org/TR/2001/REC-SVG-20010904/DTD/svg10.dtd">
<svg version="1.0" xmlns="http://www.w3.org/2000/svg"
 width="1242.000000pt" height="1280.000000pt" viewBox="0 0 1242.000000 1280.000000"
 preserveAspectRatio="xMidYMid meet">
<metadata>
Created by potrace 1.15, written by Peter Selinger 2001-2017
</metadata>
<g transform="translate(0.000000,1280.000000) scale(0.100000,-0.100000)"
fill="#000000" stroke="none">
<path d="M2105 12794 c-137 -18 -244 -49 -356 -104 -251 -124 -431 -353 -484
-619 -21 -100 -16 -283 9 -376 23 -86 95 -226 169 -329 487 -675 671 -1472
526 -2271 -154 -847 -698 -1617 -1477 -2089 -51 -31 -95 -56 -98 -56 -3 0 -28
-16 -57 -35 -131 -88 -251 -245 -298 -390 -22 -69 -22 -80 -31 -785 -4 -393
-7 -1642 -5 -2775 l3 -2060 23 -100 c102 -446 364 -709 783 -786 109 -21 4547
-21 4656 0 315 58 557 234 685 498 28 58 57 59 83 1 52 -116 168 -254 279
-333 110 -78 228 -128 385 -162 81 -17 197 -18 2365 -18 2185 0 2284 1 2365
19 424 92 673 359 767 822 17 85 18 227 18 2834 0 2605 -1 2748 -18 2810 -10
36 -33 95 -52 132 -75 149 -164 236 -351 347 -416 246 -732 524 -998 878 -528
703 -718 1566 -530 2412 87 388 279 804 524 1132 75 101 122 196 150 304 126
487 -195 969 -720 1082 -78 17 -148 18 -895 18 l-810 0 -90 -24 c-123 -32
-214 -72 -311 -136 -171 -114 -142 -71 -1101 -1621 -479 -775 -889 -1443 -911
-1484 -22 -41 -54 -112 -73 -157 l-32 -82 -43 105 c-24 58 -62 138 -84 177
-23 40 -427 697 -898 1461 l-857 1390 -95 96 c-103 104 -185 159 -313 210
-165 66 -134 64 -992 66 -429 1 -793 0 -810 -2z"/>
</g>
</svg>
