<?xml version="1.0" encoding="iso-8859-1"?>
<!-- Generator: Adobe Illustrator 19.0.0, SVG Export Plug-In . SVG Version: 6.00 Build 0)  -->
<svg version="1.1" id="Layer_1" xmlns="http://www.w3.org/2000/svg" xmlns:xlink="http://www.w3.org/1999/xlink" x="0px" y="0px"
	 viewBox="0 0 511.984 511.984" style="enable-background:new 0 0 511.984 511.984;" xml:space="preserve">
<path style="fill:#DBAFA5;" d="M415.967,354.141v-29.858c0-16.499-10.608-31.124-26.374-36.327l-1.188-0.344
	c-17.312-4.656-23.172-9.124-30.89-12.046c-27.342-10.422-34.451-17.938-36.279-21.483c-0.062-0.125-0.109-0.266-0.172-0.391
	l-0.219-31.766l-64.857-0.734l-64.857,0.734l-0.227,31.766c-0.055,0.125-0.109,0.266-0.172,0.391
	c-1.82,3.546-8.938,11.062-36.28,21.483c-7.711,2.922-13.57,7.39-30.89,12.046l-1.188,0.344C106.609,293.159,96,307.784,96,324.283
	v29.858H415.967z"/>
<rect x="0.544" y="345.441" style="fill:#5D9CEC;" width="511.44" height="131.37"/>
<path style="fill:#4A89DC;" d="M341.314,370.14c-1.641,0-3.266-0.375-4.766-1.125l-16.562-8.281l-16.562,8.281
	c-3.016,1.5-6.547,1.5-9.547,0l-16.562-8.281l-16.554,8.281c-3.008,1.5-6.539,1.5-9.546,0l-16.562-8.281l-16.562,8.281
	c-3,1.5-6.539,1.5-9.539,0l-16.562-8.281l-16.562,8.281c-3,1.5-6.539,1.5-9.539,0l-16.562-8.281l-16.562,8.281
	c-3.008,1.5-6.539,1.5-9.539,0l-16.562-8.281l-16.57,8.281c-3,1.5-6.531,1.5-9.539,0l-16.562-8.281l-16.562,8.281
	c-2.531,1.266-5.461,1.469-8.14,0.578L7.294,358.922c-5.586-1.859-8.609-7.89-6.742-13.482c1.859-5.594,7.898-8.609,13.483-6.75
	l27.812,9.265l17.382-8.687c3-1.5,6.531-1.5,9.539,0l16.562,8.281l16.562-8.281c3-1.5,6.539-1.5,9.539,0l16.562,8.281l16.562-8.281
	c3.008-1.5,6.539-1.5,9.539,0l16.562,8.281l16.562-8.281c3.008-1.5,6.539-1.5,9.546,0l16.562,8.281l16.562-8.281
	c3-1.5,6.539-1.5,9.539,0l16.562,8.281l16.562-8.281c2.999-1.5,6.53-1.5,9.53,0l16.562,8.281l16.562-8.281
	c3.016-1.5,6.547-1.5,9.547,0l16.562,8.281l16.561-8.281c2.999-1.5,6.53-1.5,9.546,0l16.562,8.281l16.562-8.281
	c3-1.5,6.531-1.5,9.53,0l16.562,8.281l16.562-8.281c3.016-1.5,6.547-1.5,9.547,0l17.375,8.687l27.811-9.265
	c5.594-1.859,11.625,1.156,13.5,6.75c1.859,5.593-1.172,11.623-6.75,13.482l-31.998,10.672c-2.688,0.891-5.609,0.688-8.141-0.578
	l-16.562-8.281l-16.562,8.281c-3.016,1.5-6.547,1.5-9.546,0l-16.562-8.281l-16.562,8.281c-3,1.5-6.531,1.5-9.547,0l-16.562-8.281
	l-16.561,8.281C344.579,369.765,342.954,370.14,341.314,370.14z"/>
<path style="fill:#EAC6BB;" d="M345.985,160.46c0,58.467-55.748,112.294-89.997,112.294s-89.997-53.827-89.997-112.294
	c0-58.481,40.296-97.059,89.997-97.059C305.689,63.401,345.985,101.978,345.985,160.46z"/>
<path style="fill:#965353;" d="M302.439,68.464c0,0-1.75-15.562,16.875-26.765c7.891-4.734-118.246-27.218-149.909,52.498
	c-11.89,29.936-3.102,74.013-3.102,74.013l27.421-49.154c0,0,29.882,6.968,62.264,6.968c32.374,0,63.341-6.968,63.341-6.968
	l26.655,41.545c0,0,10.233-39.889-1.234-66.325C333.283,67.854,302.439,68.464,302.439,68.464z"/>
<g>
</g>
<g>
</g>
<g>
</g>
<g>
</g>
<g>
</g>
<g>
</g>
<g>
</g>
<g>
</g>
<g>
</g>
<g>
</g>
<g>
</g>
<g>
</g>
<g>
</g>
<g>
</g>
<g>
</g>
</svg>
